{
  "accessors": [
    {
      "name": "product-4658af52-cb9c-43fb-9529-84a44b58a629-body_1_0_positions",
      "componentType": 5126,
      "count": 30,
      "min": [
        -2.1584572792053223,
        -14.498190879821777,
        15.069999694824219
      ],
      "max": [
        -1.2816449403762817,
        -13.946647644042969,
        17.719999313354492
      ],
      "type": "VEC3",
      "bufferView": 0,
      "byteOffset": 0
    },
    {
      "name": "product-4658af52-cb9c-43fb-9529-84a44b58a629-body_1_0_normals",
      "componentType": 5126,
      "count": 30,
      "min": [
        -0.7071067690849304,
        -1,
        -1
      ],
      "max": [
        0.7071067690849304,
        1,
        1
      ],
      "type": "VEC3",
      "bufferView": 1,
      "byteOffset": 0
    },
    {
      "name": "product-4658af52-cb9c-43fb-9529-84a44b58a629-body_1_0_indices",
      "componentType": 5123,
      "count": 48,
      "min": [
        0
      ],
      "max": [
        29
      ],
      "type": "SCALAR",
      "bufferView": 2,
      "byteOffset": 0
    }
  ],
  "asset": {
    "generator": "obj2gltf",
    "version": "2.0"
  },
  "buffers": [
    {
      "name": "Basement+36+IfcWallStandardCase+16MAzIovn3_vKfXAHBMAOf",
      "byteLength": 816,
      "uri": "data:application/octet-stream;base64,"
    }
  ],
  "bufferViews": [
    {
      "name": "bufferView_0",
      "buffer": 0,
      "byteLength": 360,
      "byteOffset": 0,
      "byteStride": 12,
      "target": 34962
    },
    {
      "name": "bufferView_1",
      "buffer": 0,
      "byteLength": 360,
      "byteOffset": 360,
      "byteStride": 12,
      "target": 34962
    },
    {
      "name": "bufferView_2",
      "buffer": 0,
      "byteLength": 96,
      "byteOffset": 720,
      "target": 34963
    }
  ],
  "materials": [
    {
      "name": "IfcWallStandardCase",
      "pbrMetallicRoughness": {
        "baseColorFactor": [
          0.9,
          0.9,
          0.9,
          1
        ],
        "metallicFactor": 0,
        "roughnessFactor": 1
      },
      "emissiveFactor": [
        0,
        0,
        0
      ],
      "alphaMode": "OPAQUE",
      "doubleSided": false
    }
  ],
  "meshes": [
    {
      "name": "product-4658af52-cb9c-43fb-9529-84a44b58a629-body_1",
      "primitives": [
        {
          "attributes": {
            "POSITION": 0,
            "NORMAL": 1
          },
          "indices": 2,
          "material": 0,
          "mode": 4
        }
      ]
    }
  ],
  "nodes": [
    {
      "name": "product-4658af52-cb9c-43fb-9529-84a44b58a629-body",
      "mesh": 0
    }
  ],
  "scene": 0,
  "scenes": [
    {
      "nodes": [
        0
      ]
    }
  ]
}
