{
  "accessors": [
    {
      "name": "product-fa6a3807-5259-4664-882e-4c458a9c8d74-body_1_0_positions",
      "componentType": 5126,
      "count": 808,
      "min": [
        -0.3692922592163086,
        -6.026225566864014,
        15.270000457763672
      ],
      "max": [
        0.612192690372467,
        -3.5662479400634766,
        19.604263305664062
      ],
      "type": "VEC3",
      "bufferView": 0,
      "byteOffset": 0
    },
    {
      "name": "product-fa6a3807-5259-4664-882e-4c458a9c8d74-body_1_0_normals",
      "componentType": 5126,
      "count": 808,
      "min": [
        -1,
        -1,
        -1
      ],
      "max": [
        1,
        1,
        1
      ],
      "type": "VEC3",
      "bufferView": 1,
      "byteOffset": 0
    },
    {
      "name": "product-fa6a3807-5259-4664-882e-4c458a9c8d74-body_1_0_indices",
      "componentType": 5123,
      "count": 1212,
      "min": [
        0
      ],
      "max": [
        807
      ],
      "type": "SCALAR",
      "bufferView": 2,
      "byteOffset": 0
    },
    {
      "name": "product-fa6a3807-5259-4664-882e-4c458a9c8d68-body_1_0_positions",
      "componentType": 5126,
      "count": 1152,
      "min": [
        -0.3692922592163086,
        -6.026225566864014,
        15.270000457763672
      ],
      "max": [
        1.4113926887512207,
        -2.7670481204986572,
        19.553972244262695
      ],
      "type": "VEC3",
      "bufferView": 0,
      "byteOffset": 9696
    },
    {
      "name": "product-fa6a3807-5259-4664-882e-4c458a9c8d68-body_1_0_normals",
      "componentType": 5126,
      "count": 1152,
      "min": [
        -1,
        -1,
        -1
      ],
      "max": [
        1,
        1,
        1
      ],
      "type": "VEC3",
      "bufferView": 1,
      "byteOffset": 9696
    },
    {
      "name": "product-fa6a3807-5259-4664-882e-4c458a9c8d68-body_1_0_indices",
      "componentType": 5123,
      "count": 1728,
      "min": [
        0
      ],
      "max": [
        1151
      ],
      "type": "SCALAR",
      "bufferView": 2,
      "byteOffset": 2424
    },
    {
      "name": "product-fa6a3807-5259-4664-882e-4c458a9c93d2-body_1_0_positions",
      "componentType": 5126,
      "count": 804,
      "min": [
        -0.3692922592163086,
        -6.03872537612915,
        15.069999694824219
      ],
      "max": [
        1.4117926359176636,
        -2.766648054122925,
        18.420000076293945
      ],
      "type": "VEC3",
      "bufferView": 0,
      "byteOffset": 23520
    },
    {
      "name": "product-fa6a3807-5259-4664-882e-4c458a9c93d2-body_1_0_normals",
      "componentType": 5126,
      "count": 804,
      "min": [
        -1,
        -1,
        -1
      ],
      "max": [
        1,
        1,
        1
      ],
      "type": "VEC3",
      "bufferView": 1,
      "byteOffset": 23520
    },
    {
      "name": "product-fa6a3807-5259-4664-882e-4c458a9c93d2-body_1_0_indices",
      "componentType": 5123,
      "count": 1212,
      "min": [
        0
      ],
      "max": [
        803
      ],
      "type": "SCALAR",
      "bufferView": 2,
      "byteOffset": 5880
    },
    {
      "name": "product-fa6a3807-5259-4664-882e-4c458a9c9046-body_1_0_positions",
      "componentType": 5126,
      "count": 30,
      "min": [
        -0.3692922592163086,
        -2.766648054122925,
        15.069999694824219
      ],
      "max": [
        1.4117926359176636,
        -2.7166481018066406,
        16.343570709228516
      ],
      "type": "VEC3",
      "bufferView": 0,
      "byteOffset": 33168
    },
    {
      "name": "product-fa6a3807-5259-4664-882e-4c458a9c9046-body_1_0_normals",
      "componentType": 5126,
      "count": 30,
      "min": [
        -1,
        -1,
        -1
      ],
      "max": [
        1,
        1,
        0.8755315542221069
      ],
      "type": "VEC3",
      "bufferView": 1,
      "byteOffset": 33168
    },
    {
      "name": "product-fa6a3807-5259-4664-882e-4c458a9c9046-body_1_0_indices",
      "componentType": 5123,
      "count": 48,
      "min": [
        0
      ],
      "max": [
        29
      ],
      "type": "SCALAR",
      "bufferView": 2,
      "byteOffset": 8304
    },
    {
      "name": "product-fa6a3807-5259-4664-882e-4c458a9c9045-body_1_0_positions",
      "componentType": 5126,
      "count": 24,
      "min": [
        1.4117926359176636,
        -3.119483470916748,
        15.886704444885254
      ],
      "max": [
        1.4617927074432373,
        -2.7166481018066406,
        16.343570709228516
      ],
      "type": "VEC3",
      "bufferView": 0,
      "byteOffset": 33528
    },
    {
      "name": "product-fa6a3807-5259-4664-882e-4c458a9c9045-body_1_0_normals",
      "componentType": 5126,
      "count": 24,
      "min": [
        -1,
        -1,
        -1
      ],
      "max": [
        1,
        1,
        1
      ],
      "type": "VEC3",
      "bufferView": 1,
      "byteOffset": 33528
    },
    {
      "name": "product-fa6a3807-5259-4664-882e-4c458a9c9045-body_1_0_indices",
      "componentType": 5123,
      "count": 36,
      "min": [
        0
      ],
      "max": [
        23
      ],
      "type": "SCALAR",
      "bufferView": 2,
      "byteOffset": 8400
    },
    {
      "name": "product-fa6a3807-5259-4664-882e-4c458a9c9044-body_1_0_positions",
      "componentType": 5126,
      "count": 24,
      "min": [
        1.4117926359176636,
        -6.026225566864014,
        15.886704444885254
      ],
      "max": [
        1.4617927074432373,
        -3.119483470916748,
        18.482616424560547
      ],
      "type": "VEC3",
      "bufferView": 0,
      "byteOffset": 33816
    },
    {
      "name": "product-fa6a3807-5259-4664-882e-4c458a9c9044-body_1_0_normals",
      "componentType": 5126,
      "count": 24,
      "min": [
        -1,
        -1,
        -0.8054214715957642
      ],
      "max": [
        1,
        1,
        0.8054214715957642
      ],
      "type": "VEC3",
      "bufferView": 1,
      "byteOffset": 33816
    },
    {
      "name": "product-fa6a3807-5259-4664-882e-4c458a9c9044-body_1_0_indices",
      "componentType": 5123,
      "count": 36,
      "min": [
        0
      ],
      "max": [
        23
      ],
      "type": "SCALAR",
      "bufferView": 2,
      "byteOffset": 8472
    },
    {
      "name": "product-fa6a3807-5259-4664-882e-4c458a9c90ba-body_1_0_positions",
      "componentType": 5126,
      "count": 30,
      "min": [
        -0.3692922592163086,
        -3.6666481494903564,
        15.069999694824219
      ],
      "max": [
        0.5117926597595215,
        -3.616647958755493,
        16.23535919189453
      ],
      "type": "VEC3",
      "bufferView": 0,
      "byteOffset": 34104
    },
    {
      "name": "product-fa6a3807-5259-4664-882e-4c458a9c90ba-body_1_0_normals",
      "componentType": 5126,
      "count": 30,
      "min": [
        -1,
        -1,
        -1
      ],
      "max": [
        1,
        1,
        0.6882163286209106
      ],
      "type": "VEC3",
      "bufferView": 1,
      "byteOffset": 34104
    },
    {
      "name": "product-fa6a3807-5259-4664-882e-4c458a9c90ba-body_1_0_indices",
      "componentType": 5123,
      "count": 48,
      "min": [
        0
      ],
      "max": [
        29
      ],
      "type": "SCALAR",
      "bufferView": 2,
      "byteOffset": 8544
    },
    {
      "name": "product-fa6a3807-5259-4664-882e-4c458a9c90b9-body_1_0_positions",
      "componentType": 5126,
      "count": 24,
      "min": [
        0.5117926597595215,
        -6.026225566864014,
        15.779090881347656
      ],
      "max": [
        0.5617926716804504,
        -3.616647958755493,
        18.585155487060547
      ],
      "type": "VEC3",
      "bufferView": 0,
      "byteOffset": 34464
    },
    {
      "name": "product-fa6a3807-5259-4664-882e-4c458a9c90b9-body_1_0_normals",
      "componentType": 5126,
      "count": 24,
      "min": [
        -1,
        -1,
        -0.7297009229660034
      ],
      "max": [
        1,
        1,
        0.7297009229660034
      ],
      "type": "VEC3",
      "bufferView": 1,
      "byteOffset": 34464
    },
    {
      "name": "product-fa6a3807-5259-4664-882e-4c458a9c90b9-body_1_0_indices",
      "componentType": 5123,
      "count": 36,
      "min": [
        0
      ],
      "max": [
        23
      ],
      "type": "SCALAR",
      "bufferView": 2,
      "byteOffset": 8640
    }
  ],
  "asset": {
    "generator": "obj2gltf",
    "version": "2.0"
  },
  "buffers": [
    {
      "name": "Basement+43+IfcStair+3wQZW7Kbb6P8WkJ4MAd9DI",
      "byteLength": 78216,
      "uri": "data:application/octet-stream;base64,"
    }
  ],
  "bufferViews": [
    {
      "name": "bufferView_0",
      "buffer": 0,
      "byteLength": 34752,
      "byteOffset": 0,
      "byteStride": 12,
      "target": 34962
    },
    {
      "name": "bufferView_1",
      "buffer": 0,
      "byteLength": 34752,
      "byteOffset": 34752,
      "byteStride": 12,
      "target": 34962
    },
    {
      "name": "bufferView_2",
      "buffer": 0,
      "byteLength": 8712,
      "byteOffset": 69504,
      "target": 34963
    }
  ],
  "materials": [
    {
      "name": "IfcRailing",
      "pbrMetallicRoughness": {
        "baseColorFactor": [
          0.65,
          0.6,
          0.6,
          1
        ],
        "metallicFactor": 0,
        "roughnessFactor": 1
      },
      "emissiveFactor": [
        0,
        0,
        0
      ],
      "alphaMode": "OPAQUE",
      "doubleSided": false
    },
    {
      "name": "IfcStairFlight",
      "pbrMetallicRoughness": {
        "baseColorFactor": [
          0.7,
          0.7,
          0.7,
          1
        ],
        "metallicFactor": 0,
        "roughnessFactor": 1
      },
      "emissiveFactor": [
        0,
        0,
        0
      ],
      "alphaMode": "OPAQUE",
      "doubleSided": false
    },
    {
      "name": "IfcMember",
      "pbrMetallicRoughness": {
        "baseColorFactor": [
          0.65,
          0.6,
          0.6,
          1
        ],
        "metallicFactor": 0,
        "roughnessFactor": 1
      },
      "emissiveFactor": [
        0,
        0,
        0
      ],
      "alphaMode": "OPAQUE",
      "doubleSided": false
    }
  ],
  "meshes": [
    {
      "name": "product-fa6a3807-5259-4664-882e-4c458a9c8d74-body_1",
      "primitives": [
        {
          "attributes": {
            "POSITION": 0,
            "NORMAL": 1
          },
          "indices": 2,
          "material": 0,
          "mode": 4
        }
      ]
    },
    {
      "name": "product-fa6a3807-5259-4664-882e-4c458a9c8d68-body_1",
      "primitives": [
        {
          "attributes": {
            "POSITION": 3,
            "NORMAL": 4
          },
          "indices": 5,
          "material": 0,
          "mode": 4
        }
      ]
    },
    {
      "name": "product-fa6a3807-5259-4664-882e-4c458a9c93d2-body_1",
      "primitives": [
        {
          "attributes": {
            "POSITION": 6,
            "NORMAL": 7
          },
          "indices": 8,
          "material": 1,
          "mode": 4
        }
      ]
    },
    {
      "name": "product-fa6a3807-5259-4664-882e-4c458a9c9046-body_1",
      "primitives": [
        {
          "attributes": {
            "POSITION": 9,
            "NORMAL": 10
          },
          "indices": 11,
          "material": 2,
          "mode": 4
        }
      ]
    },
    {
      "name": "product-fa6a3807-5259-4664-882e-4c458a9c9045-body_1",
      "primitives": [
        {
          "attributes": {
            "POSITION": 12,
            "NORMAL": 13
          },
          "indices": 14,
          "material": 2,
          "mode": 4
        }
      ]
    },
    {
      "name": "product-fa6a3807-5259-4664-882e-4c458a9c9044-body_1",
      "primitives": [
        {
          "attributes": {
            "POSITION": 15,
            "NORMAL": 16
          },
          "indices": 17,
          "material": 2,
          "mode": 4
        }
      ]
    },
    {
      "name": "product-fa6a3807-5259-4664-882e-4c458a9c90ba-body_1",
      "primitives": [
        {
          "attributes": {
            "POSITION": 18,
            "NORMAL": 19
          },
          "indices": 20,
          "material": 2,
          "mode": 4
        }
      ]
    },
    {
      "name": "product-fa6a3807-5259-4664-882e-4c458a9c90b9-body_1",
      "primitives": [
        {
          "attributes": {
            "POSITION": 21,
            "NORMAL": 22
          },
          "indices": 23,
          "material": 2,
          "mode": 4
        }
      ]
    }
  ],
  "nodes": [
    {
      "name": "product-fa6a3807-5259-4664-882e-4c458a9c8d74-body",
      "mesh": 0
    },
    {
      "name": "product-fa6a3807-5259-4664-882e-4c458a9c8d68-body",
      "mesh": 1
    },
    {
      "name": "product-fa6a3807-5259-4664-882e-4c458a9c93d2-body",
      "mesh": 2
    },
    {
      "name": "product-fa6a3807-5259-4664-882e-4c458a9c9046-body",
      "mesh": 3
    },
    {
      "name": "product-fa6a3807-5259-4664-882e-4c458a9c9045-body",
      "mesh": 4
    },
    {
      "name": "product-fa6a3807-5259-4664-882e-4c458a9c9044-body",
      "mesh": 5
    },
    {
      "name": "product-fa6a3807-5259-4664-882e-4c458a9c90ba-body",
      "mesh": 6
    },
    {
      "name": "product-fa6a3807-5259-4664-882e-4c458a9c90b9-body",
      "mesh": 7
    }
  ],
  "scene": 0,
  "scenes": [
    {
      "nodes": [
        0,
        1,
        2,
        3,
        4,
        5,
        6,
        7
      ]
    }
  ]
}
