{
  "accessors": [
    {
      "name": "product-56d7f5f4-1b02-48dd-8968-ef5c464ec77c-body_1_0_positions",
      "componentType": 5126,
      "count": 360,
      "min": [
        -3.349721908569336,
        3.018458366394043,
        15.069999694824219
      ],
      "max": [
        -1.639459252357483,
        4.008458137512207,
        16.513334274291992
      ],
      "type": "VEC3",
      "bufferView": 0,
      "byteOffset": 0
    },
    {
      "name": "product-56d7f5f4-1b02-48dd-8968-ef5c464ec77c-body_1_0_normals",
      "componentType": 5126,
      "count": 360,
      "min": [
        -1,
        -1,
        -1
      ],
      "max": [
        1,
        1,
        1
      ],
      "type": "VEC3",
      "bufferView": 1,
      "byteOffset": 0
    },
    {
      "name": "product-56d7f5f4-1b02-48dd-8968-ef5c464ec77c-body_1_0_indices",
      "componentType": 5123,
      "count": 540,
      "min": [
        0
      ],
      "max": [
        359
      ],
      "type": "SCALAR",
      "bufferView": 2,
      "byteOffset": 0
    },
    {
      "name": "product-f8c50327-7b3f-4f11-97c3-596f8150d00f-body_1_0_positions",
      "componentType": 5126,
      "count": 312,
      "min": [
        -3.33722186088562,
        4.156015872955322,
        16.513334274291992
      ],
      "max": [
        -1.8247219324111938,
        5.1460161209106445,
        17.81999969482422
      ],
      "type": "VEC3",
      "bufferView": 0,
      "byteOffset": 4320
    },
    {
      "name": "product-f8c50327-7b3f-4f11-97c3-596f8150d00f-body_1_0_normals",
      "componentType": 5126,
      "count": 312,
      "min": [
        -1,
        -1,
        -1
      ],
      "max": [
        1,
        1,
        1
      ],
      "type": "VEC3",
      "bufferView": 1,
      "byteOffset": 4320
    },
    {
      "name": "product-f8c50327-7b3f-4f11-97c3-596f8150d00f-body_1_0_indices",
      "componentType": 5123,
      "count": 468,
      "min": [
        0
      ],
      "max": [
        311
      ],
      "type": "SCALAR",
      "bufferView": 2,
      "byteOffset": 1080
    },
    {
      "name": "product-abf9cd62-2b60-4d2d-bff6-919218214be6-body_1_0_positions",
      "componentType": 5126,
      "count": 24,
      "min": [
        -4.337222099304199,
        3.018458366394043,
        16.513334274291992
      ],
      "max": [
        -3.33722186088562,
        5.1460161209106445,
        16.56333351135254
      ],
      "type": "VEC3",
      "bufferView": 0,
      "byteOffset": 8064
    },
    {
      "name": "product-abf9cd62-2b60-4d2d-bff6-919218214be6-body_1_0_normals",
      "componentType": 5126,
      "count": 24,
      "min": [
        -1,
        -1,
        -1
      ],
      "max": [
        1,
        1,
        1
      ],
      "type": "VEC3",
      "bufferView": 1,
      "byteOffset": 8064
    },
    {
      "name": "product-abf9cd62-2b60-4d2d-bff6-919218214be6-body_1_0_indices",
      "componentType": 5123,
      "count": 36,
      "min": [
        0
      ],
      "max": [
        23
      ],
      "type": "SCALAR",
      "bufferView": 2,
      "byteOffset": 2016
    },
    {
      "name": "product-3c475e97-1d46-4864-8009-173190e0b702-body_1_0_positions",
      "componentType": 5126,
      "count": 94,
      "min": [
        -4.387221813201904,
        2.9684581756591797,
        15.069999694824219
      ],
      "max": [
        -1.639459252357483,
        5.19601583480835,
        17.933504104614258
      ],
      "type": "VEC3",
      "bufferView": 0,
      "byteOffset": 8352
    },
    {
      "name": "product-3c475e97-1d46-4864-8009-173190e0b702-body_1_0_normals",
      "componentType": 5126,
      "count": 94,
      "min": [
        -1,
        -1,
        -1
      ],
      "max": [
        1,
        1,
        1
      ],
      "type": "VEC3",
      "bufferView": 1,
      "byteOffset": 8352
    },
    {
      "name": "product-3c475e97-1d46-4864-8009-173190e0b702-body_1_0_indices",
      "componentType": 5123,
      "count": 144,
      "min": [
        0
      ],
      "max": [
        93
      ],
      "type": "SCALAR",
      "bufferView": 2,
      "byteOffset": 2088
    },
    {
      "name": "product-c351b917-e8c1-4d87-8cbf-cc4bd937577a-body_1_0_positions",
      "componentType": 5126,
      "count": 36,
      "min": [
        -3.33722186088562,
        4.008458137512207,
        15.069999694824219
      ],
      "max": [
        -1.639459252357483,
        4.05845832824707,
        16.610061645507812
      ],
      "type": "VEC3",
      "bufferView": 0,
      "byteOffset": 9480
    },
    {
      "name": "product-c351b917-e8c1-4d87-8cbf-cc4bd937577a-body_1_0_normals",
      "componentType": 5126,
      "count": 36,
      "min": [
        -1,
        -1,
        -1
      ],
      "max": [
        1,
        1,
        1
      ],
      "type": "VEC3",
      "bufferView": 1,
      "byteOffset": 9480
    },
    {
      "name": "product-c351b917-e8c1-4d87-8cbf-cc4bd937577a-body_1_0_indices",
      "componentType": 5123,
      "count": 60,
      "min": [
        0
      ],
      "max": [
        35
      ],
      "type": "SCALAR",
      "bufferView": 2,
      "byteOffset": 2376
    },
    {
      "name": "product-6923d568-3b01-4b65-92d5-c66531966711-body_1_0_positions",
      "componentType": 5126,
      "count": 24,
      "min": [
        -3.33722186088562,
        4.05845832824707,
        16.21006202697754
      ],
      "max": [
        -3.287221908569336,
        4.106015682220459,
        16.610061645507812
      ],
      "type": "VEC3",
      "bufferView": 0,
      "byteOffset": 9912
    },
    {
      "name": "product-6923d568-3b01-4b65-92d5-c66531966711-body_1_0_normals",
      "componentType": 5126,
      "count": 24,
      "min": [
        -1,
        -1,
        -1
      ],
      "max": [
        1,
        1,
        1
      ],
      "type": "VEC3",
      "bufferView": 1,
      "byteOffset": 9912
    },
    {
      "name": "product-6923d568-3b01-4b65-92d5-c66531966711-body_1_0_indices",
      "componentType": 5123,
      "count": 36,
      "min": [
        0
      ],
      "max": [
        23
      ],
      "type": "SCALAR",
      "bufferView": 2,
      "byteOffset": 2496
    },
    {
      "name": "product-2765d7d7-a6c0-433a-aab4-e62f598856da-body_1_0_positions",
      "componentType": 5126,
      "count": 24,
      "min": [
        -3.33722186088562,
        4.106015682220459,
        16.31430435180664
      ],
      "max": [
        -1.8372219800949097,
        4.156015872955322,
        17.933504104614258
      ],
      "type": "VEC3",
      "bufferView": 0,
      "byteOffset": 10200
    },
    {
      "name": "product-2765d7d7-a6c0-433a-aab4-e62f598856da-body_1_0_normals",
      "componentType": 5126,
      "count": 24,
      "min": [
        -1,
        -1,
        -0.8012802004814148
      ],
      "max": [
        1,
        1,
        0.8012802004814148
      ],
      "type": "VEC3",
      "bufferView": 1,
      "byteOffset": 10200
    },
    {
      "name": "product-2765d7d7-a6c0-433a-aab4-e62f598856da-body_1_0_indices",
      "componentType": 5123,
      "count": 36,
      "min": [
        0
      ],
      "max": [
        23
      ],
      "type": "SCALAR",
      "bufferView": 2,
      "byteOffset": 2568
    },
    {
      "name": "product-fa6a3807-5259-4664-882e-4c458a9c94c6-body_1_0_positions",
      "componentType": 5126,
      "count": 928,
      "min": [
        -3.3876218795776367,
        3.9580583572387695,
        15.256667137145996
      ],
      "max": [
        -1.639459252357483,
        4.206416130065918,
        18.969999313354492
      ],
      "type": "VEC3",
      "bufferView": 0,
      "byteOffset": 10488
    },
    {
      "name": "product-fa6a3807-5259-4664-882e-4c458a9c94c6-body_1_0_normals",
      "componentType": 5126,
      "count": 928,
      "min": [
        -1,
        -1,
        -1
      ],
      "max": [
        1,
        1,
        1
      ],
      "type": "VEC3",
      "bufferView": 1,
      "byteOffset": 10488
    },
    {
      "name": "product-fa6a3807-5259-4664-882e-4c458a9c94c6-body_1_0_indices",
      "componentType": 5123,
      "count": 1392,
      "min": [
        0
      ],
      "max": [
        927
      ],
      "type": "SCALAR",
      "bufferView": 2,
      "byteOffset": 2640
    },
    {
      "name": "product-fa6a3807-5259-4664-882e-4c458a9c953a-body_1_0_positions",
      "componentType": 5126,
      "count": 1648,
      "min": [
        -4.336822032928467,
        3.0188581943511963,
        15.256667137145996
      ],
      "max": [
        -1.639459252357483,
        5.145616054534912,
        18.969999313354492
      ],
      "type": "VEC3",
      "bufferView": 0,
      "byteOffset": 21624
    },
    {
      "name": "product-fa6a3807-5259-4664-882e-4c458a9c953a-body_1_0_normals",
      "componentType": 5126,
      "count": 1648,
      "min": [
        -1,
        -1,
        -1
      ],
      "max": [
        1,
        1,
        1
      ],
      "type": "VEC3",
      "bufferView": 1,
      "byteOffset": 21624
    },
    {
      "name": "product-fa6a3807-5259-4664-882e-4c458a9c953a-body_1_0_indices",
      "componentType": 5123,
      "count": 2472,
      "min": [
        0
      ],
      "max": [
        1647
      ],
      "type": "SCALAR",
      "bufferView": 2,
      "byteOffset": 5424
    }
  ],
  "asset": {
    "generator": "obj2gltf",
    "version": "2.0"
  },
  "buffers": [
    {
      "name": "Basement+42+IfcStair+3wQZW7Kbb6P8WkJ4MAd9Jt",
      "byteLength": 93168,
      "uri": "data:application/octet-stream;base64,"
    }
  ],
  "bufferViews": [
    {
      "name": "bufferView_0",
      "buffer": 0,
      "byteLength": 41400,
      "byteOffset": 0,
      "byteStride": 12,
      "target": 34962
    },
    {
      "name": "bufferView_1",
      "buffer": 0,
      "byteLength": 41400,
      "byteOffset": 41400,
      "byteStride": 12,
      "target": 34962
    },
    {
      "name": "bufferView_2",
      "buffer": 0,
      "byteLength": 10368,
      "byteOffset": 82800,
      "target": 34963
    }
  ],
  "materials": [
    {
      "name": "IfcStairFlight",
      "pbrMetallicRoughness": {
        "baseColorFactor": [
          0.7,
          0.7,
          0.7,
          1
        ],
        "metallicFactor": 0,
        "roughnessFactor": 1
      },
      "emissiveFactor": [
        0,
        0,
        0
      ],
      "alphaMode": "OPAQUE",
      "doubleSided": false
    },
    {
      "name": "IfcSlab",
      "pbrMetallicRoughness": {
        "baseColorFactor": [
          0.4,
          0.4,
          0.4,
          1
        ],
        "metallicFactor": 0,
        "roughnessFactor": 1
      },
      "emissiveFactor": [
        0,
        0,
        0
      ],
      "alphaMode": "OPAQUE",
      "doubleSided": false
    },
    {
      "name": "IfcMember",
      "pbrMetallicRoughness": {
        "baseColorFactor": [
          0.65,
          0.6,
          0.6,
          1
        ],
        "metallicFactor": 0,
        "roughnessFactor": 1
      },
      "emissiveFactor": [
        0,
        0,
        0
      ],
      "alphaMode": "OPAQUE",
      "doubleSided": false
    },
    {
      "name": "IfcRailing",
      "pbrMetallicRoughness": {
        "baseColorFactor": [
          0.65,
          0.6,
          0.6,
          1
        ],
        "metallicFactor": 0,
        "roughnessFactor": 1
      },
      "emissiveFactor": [
        0,
        0,
        0
      ],
      "alphaMode": "OPAQUE",
      "doubleSided": false
    }
  ],
  "meshes": [
    {
      "name": "product-56d7f5f4-1b02-48dd-8968-ef5c464ec77c-body_1",
      "primitives": [
        {
          "attributes": {
            "POSITION": 0,
            "NORMAL": 1
          },
          "indices": 2,
          "material": 0,
          "mode": 4
        }
      ]
    },
    {
      "name": "product-f8c50327-7b3f-4f11-97c3-596f8150d00f-body_1",
      "primitives": [
        {
          "attributes": {
            "POSITION": 3,
            "NORMAL": 4
          },
          "indices": 5,
          "material": 0,
          "mode": 4
        }
      ]
    },
    {
      "name": "product-abf9cd62-2b60-4d2d-bff6-919218214be6-body_1",
      "primitives": [
        {
          "attributes": {
            "POSITION": 6,
            "NORMAL": 7
          },
          "indices": 8,
          "material": 1,
          "mode": 4
        }
      ]
    },
    {
      "name": "product-3c475e97-1d46-4864-8009-173190e0b702-body_1",
      "primitives": [
        {
          "attributes": {
            "POSITION": 9,
            "NORMAL": 10
          },
          "indices": 11,
          "material": 2,
          "mode": 4
        }
      ]
    },
    {
      "name": "product-c351b917-e8c1-4d87-8cbf-cc4bd937577a-body_1",
      "primitives": [
        {
          "attributes": {
            "POSITION": 12,
            "NORMAL": 13
          },
          "indices": 14,
          "material": 2,
          "mode": 4
        }
      ]
    },
    {
      "name": "product-6923d568-3b01-4b65-92d5-c66531966711-body_1",
      "primitives": [
        {
          "attributes": {
            "POSITION": 15,
            "NORMAL": 16
          },
          "indices": 17,
          "material": 2,
          "mode": 4
        }
      ]
    },
    {
      "name": "product-2765d7d7-a6c0-433a-aab4-e62f598856da-body_1",
      "primitives": [
        {
          "attributes": {
            "POSITION": 18,
            "NORMAL": 19
          },
          "indices": 20,
          "material": 2,
          "mode": 4
        }
      ]
    },
    {
      "name": "product-fa6a3807-5259-4664-882e-4c458a9c94c6-body_1",
      "primitives": [
        {
          "attributes": {
            "POSITION": 21,
            "NORMAL": 22
          },
          "indices": 23,
          "material": 3,
          "mode": 4
        }
      ]
    },
    {
      "name": "product-fa6a3807-5259-4664-882e-4c458a9c953a-body_1",
      "primitives": [
        {
          "attributes": {
            "POSITION": 24,
            "NORMAL": 25
          },
          "indices": 26,
          "material": 3,
          "mode": 4
        }
      ]
    }
  ],
  "nodes": [
    {
      "name": "product-56d7f5f4-1b02-48dd-8968-ef5c464ec77c-body",
      "mesh": 0
    },
    {
      "name": "product-f8c50327-7b3f-4f11-97c3-596f8150d00f-body",
      "mesh": 1
    },
    {
      "name": "product-abf9cd62-2b60-4d2d-bff6-919218214be6-body",
      "mesh": 2
    },
    {
      "name": "product-3c475e97-1d46-4864-8009-173190e0b702-body",
      "mesh": 3
    },
    {
      "name": "product-c351b917-e8c1-4d87-8cbf-cc4bd937577a-body",
      "mesh": 4
    },
    {
      "name": "product-6923d568-3b01-4b65-92d5-c66531966711-body",
      "mesh": 5
    },
    {
      "name": "product-2765d7d7-a6c0-433a-aab4-e62f598856da-body",
      "mesh": 6
    },
    {
      "name": "product-fa6a3807-5259-4664-882e-4c458a9c94c6-body",
      "mesh": 7
    },
    {
      "name": "product-fa6a3807-5259-4664-882e-4c458a9c953a-body",
      "mesh": 8
    }
  ],
  "scene": 0,
  "scenes": [
    {
      "nodes": [
        0,
        1,
        2,
        3,
        4,
        5,
        6,
        7,
        8
      ]
    }
  ]
}
