{
  "accessors": [
    {
      "name": "product-8599da66-d283-48f8-bc52-3c057fc61ac0-body_1_0_positions",
      "componentType": 5126,
      "count": 30,
      "min": [
        -8.979984283447266,
        -25.07117462158203,
        15.069999694824219
      ],
      "max": [
        -8.341646194458008,
        24.575944900512695,
        17.719999313354492
      ],
      "type": "VEC3",
      "bufferView": 0,
      "byteOffset": 0
    },
    {
      "name": "product-8599da66-d283-48f8-bc52-3c057fc61ac0-body_1_0_normals",
      "componentType": 5126,
      "count": 30,
      "min": [
        -0.9999433755874634,
        -1,
        -1
      ],
      "max": [
        0.9999433755874634,
        1,
        1
      ],
      "type": "VEC3",
      "bufferView": 1,
      "byteOffset": 0
    },
    {
      "name": "product-8599da66-d283-48f8-bc52-3c057fc61ac0-body_1_0_indices",
      "componentType": 5123,
      "count": 48,
      "min": [
        0
      ],
      "max": [
        29
      ],
      "type": "SCALAR",
      "bufferView": 2,
      "byteOffset": 0
    }
  ],
  "asset": {
    "generator": "obj2gltf",
    "version": "2.0"
  },
  "buffers": [
    {
      "name": "Basement+1+IfcWallStandardCase+25cTfcqeD8_BnIF0L$nXh0",
      "byteLength": 816,
      "uri": "data:application/octet-stream;base64,"
    }
  ],
  "bufferViews": [
    {
      "name": "bufferView_0",
      "buffer": 0,
      "byteLength": 360,
      "byteOffset": 0,
      "byteStride": 12,
      "target": 34962
    },
    {
      "name": "bufferView_1",
      "buffer": 0,
      "byteLength": 360,
      "byteOffset": 360,
      "byteStride": 12,
      "target": 34962
    },
    {
      "name": "bufferView_2",
      "buffer": 0,
      "byteLength": 96,
      "byteOffset": 720,
      "target": 34963
    }
  ],
  "materials": [
    {
      "name": "surface-style-1694-ifcwallstandardcase",
      "pbrMetallicRoughness": {
        "baseColorFactor": [
          0.5,
          0.5,
          0.5,
          1
        ],
        "metallicFactor": 0,
        "roughnessFactor": 1
      },
      "emissiveFactor": [
        0,
        0,
        0
      ],
      "alphaMode": "OPAQUE",
      "doubleSided": false
    }
  ],
  "meshes": [
    {
      "name": "product-8599da66-d283-48f8-bc52-3c057fc61ac0-body_1",
      "primitives": [
        {
          "attributes": {
            "POSITION": 0,
            "NORMAL": 1
          },
          "indices": 2,
          "material": 0,
          "mode": 4
        }
      ]
    }
  ],
  "nodes": [
    {
      "name": "product-8599da66-d283-48f8-bc52-3c057fc61ac0-body",
      "mesh": 0
    }
  ],
  "scene": 0,
  "scenes": [
    {
      "nodes": [
        0
      ]
    }
  ]
}
